<svg width="659" height="700" viewBox="0 0 659 700" fill="none" xmlns="http://www.w3.org/2000/svg">
<g clip-path="url(#clip0)">
<path d="M586.917 664.379C586.917 684.055 470.498 700 326.877 700C183.256 700 66.8371 684.055 66.8371 664.379C66.8371 644.704 183.256 628.759 326.877 628.759C470.498 628.759 586.917 644.72 586.917 664.379Z" fill="#3C2177"/>
<path d="M561.708 560.342C690.192 432.155 690.192 224.324 561.708 96.1379C433.223 -32.0483 224.909 -32.0483 96.4244 96.1379C-32.0601 224.324 -32.0601 432.155 96.4244 560.342C224.909 688.528 433.223 688.528 561.708 560.342Z" fill="#848EE7" fill-opacity="0.2"/>
<path d="M329.068 647.679C479.818 647.679 602.025 525.755 602.025 375.355C602.025 224.955 479.818 103.032 329.068 103.032C178.318 103.032 56.1112 224.955 56.1112 375.355C56.1112 525.755 178.318 647.679 329.068 647.679Z" fill="#848EE7" fill-opacity="0.2"/>
<path d="M329.068 625.767C436.141 625.767 522.941 539.169 522.941 432.345C522.941 325.52 436.141 238.922 329.068 238.922C221.995 238.922 135.196 325.52 135.196 432.345C135.196 539.169 221.995 625.767 329.068 625.767Z" fill="#848EE7" fill-opacity="0.2"/>
<path d="M331.408 635.794C340.717 633.789 385.811 622.628 417.544 589.423C412.601 584.903 404.215 574.35 396.801 560.279L330.518 570.586L264.235 560.279C256.821 574.35 248.435 584.903 243.492 589.423C275.241 622.611 320.336 633.772 329.645 635.794L329.661 636.156C329.661 636.156 329.974 636.09 330.518 635.992C331.062 636.107 331.375 636.156 331.375 636.156L331.408 635.794Z" fill="#3C2177"/>
<path d="M232.585 589.917C201.61 583.884 146.729 581.632 122.559 594.437C98.3885 607.242 84.038 639.148 137.42 666.023C190.802 692.899 258.535 667.026 312.411 666.533C366.287 666.023 382.648 677.579 404.314 673.815C458.701 678.335 525.824 663.607 536.962 638.622C550.143 609.034 517.619 581.122 471.289 583.128C424.958 585.133 415.139 579.117 392.978 608.508C341.87 620.063 331.787 620.819 315.937 609.017C300.071 597.215 292.525 607.768 280.184 604.497C267.827 601.226 254.482 581.139 232.585 589.917Z" fill="#FFC7AB"/>
<path d="M264.054 278.685C248.188 293.002 214.956 291.49 206.141 314.355C197.327 337.22 206.899 374.139 268.074 377.163C329.266 380.171 392.451 375.651 407.313 373.399C422.174 371.131 452.885 362.846 444.581 329.182C436.277 295.517 409.833 298.788 400.261 269.398C390.688 240.007 410.591 185.746 361.477 179.713C321.967 176.196 303.333 240.254 264.054 278.685Z" fill="#6F438F"/>
<path d="M362.564 183.478C378.809 183.1 392.402 209.663 388.25 235.47C384.098 261.277 376.354 285.77 400.525 300.284C424.695 314.799 437.53 335.132 416.77 356.797" stroke="#43205C" stroke-miterlimit="10" stroke-linecap="round"/>
<path d="M296.083 249.985C279.097 261.294 271.353 328.179 294.947 340.984C318.557 353.789 380.869 347.575 382.384 340.228C370.489 327.045 369.55 304.048 374.641 280.69C379.748 257.332 383.324 246.582 382.566 231.147C381.808 215.696 375.58 191.204 358.396 192.338C339.712 193.094 303.827 222.665 296.083 249.985Z" fill="#4E256B"/>
<path d="M365.398 193.275C372.384 194.031 387.113 217.208 381.445 247.536C375.778 277.863 360.867 319.319 384.839 342.496" stroke="#43205C" stroke-miterlimit="10" stroke-linecap="round"/>
<path d="M301.751 267.885C292.492 280.131 319.496 311.412 305.903 334.573" stroke="#43205C" stroke-miterlimit="10" stroke-linecap="round"/>
<path d="M466.61 498.49C464.715 482.283 459.426 462.311 448.865 409.184C438.287 356.057 412.601 350.403 380.885 339.472C349.152 328.541 349.91 302.914 351.426 282.959L331.029 281.134V281.068L330.65 281.101L330.271 281.068V281.134L309.874 282.959C311.39 302.931 312.148 328.557 280.415 339.472C248.699 350.403 223.013 356.057 212.435 409.184C201.857 462.311 196.569 482.283 194.674 498.49C192.796 514.698 198.826 520.352 213.555 519.218C228.285 518.084 232.437 492.457 236.968 467.604C241.499 442.733 246.408 416.367 249.803 418.241C253.197 420.132 259.243 448.766 263.016 453.286C266.624 457.61 325.378 451.61 330.617 451.067C335.856 451.61 394.61 457.61 398.218 453.286C401.991 448.766 408.038 420.132 411.432 418.241C414.826 416.351 419.735 442.733 424.266 467.604C428.797 492.474 432.949 518.1 447.679 519.218C462.458 520.336 468.504 514.698 466.61 498.49Z" fill="#FFC7AB"/>
<path d="M331.029 326.108C339.679 326.108 347.752 322.754 354.59 316.952C350.026 306.103 350.602 293.725 351.41 282.975L331.012 281.151V281.085L330.634 281.118L330.255 281.085V281.151L309.857 282.975C310.665 293.561 311.241 305.741 306.892 316.475C313.877 322.557 322.148 326.108 331.029 326.108Z" fill="#C98665" fill-opacity="0.5"/>
<path d="M375.844 232.216C375.844 266.061 355.776 293.512 331.029 293.512C306.282 293.512 286.214 266.077 286.214 232.216C286.214 198.37 306.282 170.919 331.029 170.919C355.776 170.919 375.844 198.37 375.844 232.216Z" fill="#FFC7AB"/>
<path d="M313.466 224.556C313.466 231.147 303.267 232.659 301.191 224.375" stroke="black" stroke-width="2" stroke-miterlimit="10" stroke-linecap="round"/>
<path d="M295.144 246.977C295.144 253.009 300.054 257.908 306.101 257.908C312.148 257.908 317.057 253.009 317.057 246.977C317.057 240.944 312.148 236.046 306.101 236.046C300.054 236.046 295.144 240.944 295.144 246.977Z" fill="#FF8C94"/>
<path d="M313.466 206.096C309.874 204.962 304.206 205.537 300.812 209.104" stroke="#6F438F" stroke-miterlimit="10" stroke-linecap="round"/>
<path d="M398.07 473.866C404.034 451.758 409.487 425.638 409.487 425.638C394.593 404.039 393.588 375.388 394.099 344.255C382.17 339.735 372.252 334.705 372.252 334.705C376.717 355.301 387.64 419.112 334.011 419.112C333.764 428.087 331.507 438.295 327.964 449.078C327.618 438.246 327.305 428.005 327.058 419.112C273.413 419.112 284.353 355.301 288.818 334.705C288.818 334.705 278.883 339.735 266.97 344.255C267.465 375.404 266.476 404.039 251.582 425.638C251.582 425.638 257.052 451.758 263 473.866C268.964 495.975 274.912 528.637 261.006 565.803C266.18 567.726 281.799 570.553 297.715 571.654C357.374 578.838 392.072 568.794 400.08 565.803C386.141 528.637 392.105 495.975 398.07 473.866Z" fill="#824FF1"/>
<path d="M445.257 483.417C427.216 481.526 382.681 473.242 363.174 459.681C343.666 446.119 342.562 440.465 344.028 417.107C345.495 393.749 337.768 380.928 334.093 383.196C330.419 385.464 330.782 413.721 331.523 438.591C332.265 463.461 329.315 472.124 339.992 478.535C350.668 484.945 398.877 511.311 423.904 519.234C454.088 529.409 467.697 522.242 465.868 501.909C464.023 481.526 445.257 483.417 445.257 483.417Z" fill="#FFC7AB"/>
<path d="M217.312 483.417C235.353 481.526 279.888 473.242 299.395 459.681C318.903 446.119 320.007 440.465 318.54 417.107C317.074 393.749 324.801 380.928 328.475 383.196C332.149 385.464 331.787 413.721 331.045 438.591C330.304 463.461 333.253 472.124 322.577 478.535C311.9 484.945 263.692 511.311 238.665 519.234C208.481 529.409 194.872 522.242 196.701 501.909C198.529 481.526 217.312 483.417 217.312 483.417Z" fill="#FFC7AB"/>
<path d="M318.623 418.586C318.59 418.093 318.557 417.6 318.524 417.09C317.057 393.732 324.785 380.911 328.459 383.179C332.133 385.448 331.77 413.704 331.029 438.575C330.485 457.182 331.985 466.716 328.31 473.028" stroke="#C98665" stroke-miterlimit="10" stroke-linecap="round"/>
<path d="M362.745 181.604C363.503 152.213 317.601 131.403 297.039 159.002C282.82 178.086 298.802 180.733 269.59 206.606C238.039 234.55 271.6 261.491 260.281 278.455C248.946 295.419 208.415 318.514 235.6 357.339C262.786 396.149 302.591 358.293 300.812 335.231C298.291 302.701 277.564 284.225 292.755 266.899C309.495 247.815 311.9 239.892 310.385 219.92C308.869 199.948 323.977 163.9 354.079 183.116C360.867 187.62 362.366 184.99 362.745 181.604Z" fill="#895CAB"/>
<path d="M332.166 164.772C317.65 166.629 311.06 186.552 310.928 209.449C314.075 189.872 328.772 166.958 354.079 183.116C355.743 184.217 357.094 184.891 358.181 185.237C353.634 175.029 346.846 162.898 332.166 164.772Z" fill="#6F438F"/>
<path d="M213.193 490.699C216.472 487.181 222.008 483.154 236.111 480.655" stroke="#C98665" stroke-miterlimit="10" stroke-linecap="round"/>
<path d="M175.677 612.535C186.749 603.987 228.054 601.982 271.6 620.573C315.163 639.164 329.002 646.446 363.256 638.654C397.493 630.863 422.668 632.622 422.174 647.942C421.68 663.262 416.638 672.302 405.813 673.568" stroke="#C98665" stroke-miterlimit="10" stroke-linecap="round"/>
<path d="M221.744 607.012C221.497 597.215 232.074 587.418 246.425 588.667" stroke="#C98665" stroke-miterlimit="10" stroke-linecap="round"/>
<path d="M421.927 644.934C422.685 650.703 416.638 652.725 409.092 651.722C405.055 652.479 403.556 652.232 403.556 652.232" stroke="#C98665" stroke-miterlimit="10" stroke-linecap="round"/>
<path d="M405.55 658.248C409.586 658.741 418.648 659.251 420.905 656.489" stroke="#C98665" stroke-miterlimit="10" stroke-linecap="round"/>
<path d="M404.166 663.525C407.939 664.281 417.379 665.037 419.406 662.769" stroke="#C98665" stroke-miterlimit="10" stroke-linecap="round"/>
<path d="M401.777 668.801C404.792 670.05 411.596 671.563 414.364 669.804" stroke="#C98665" stroke-miterlimit="10" stroke-linecap="round"/>
<path d="M393.473 608.015C412.865 601.489 469.262 593.451 487.633 614.803" stroke="#C98665" stroke-miterlimit="10" stroke-linecap="round"/>
<path d="M228.054 593.944C225.039 597.971 231.58 602.492 240.642 601.735C242.158 603.248 244.926 604.004 244.926 604.004" stroke="#C98665" stroke-miterlimit="10" stroke-linecap="round"/>
<path d="M223.26 600.979C222.765 604.25 230.822 606.502 236.358 606.009" stroke="#C98665" stroke-miterlimit="10" stroke-linecap="round"/>
<path d="M330.238 400.834C327.717 401.59 326.712 415.661 326.712 427.216" stroke="#C98665" stroke-miterlimit="10" stroke-linecap="round"/>
<path d="M329.958 389.031C327.437 388.785 323.664 398.582 322.906 420.181" stroke="#C98665" stroke-miterlimit="10" stroke-linecap="round"/>
<path d="M344.572 418.586C344.605 418.093 344.638 417.6 344.671 417.09C346.137 393.732 338.41 380.911 334.736 383.179C331.062 385.448 331.424 413.704 332.166 438.575C332.709 457.182 331.21 466.716 334.884 473.028" stroke="#C98665" stroke-miterlimit="10" stroke-linecap="round"/>
<path d="M332.94 400.834C335.461 401.59 336.466 415.661 336.466 427.216" stroke="#C98665" stroke-miterlimit="10" stroke-linecap="round"/>
<path d="M333.22 389.031C335.741 388.785 339.514 398.582 340.272 420.181" stroke="#C98665" stroke-miterlimit="10" stroke-linecap="round"/>
<path d="M358.033 184.415C352.365 169.719 339.333 157.851 324.603 168.207C309.874 178.563 310.253 208.907 310.253 223.98" stroke="#43205C" stroke-miterlimit="10" stroke-linecap="round"/>
<path d="M318.062 175.686C323.73 169.095 338.591 169.062 345.94 179.04" stroke="#43205C" stroke-miterlimit="10" stroke-linecap="round"/>
<path d="M314.026 184.793C316.299 179.516 327.618 176.689 333.286 178.579" stroke="#43205C" stroke-miterlimit="10" stroke-linecap="round"/>
<path d="M233.59 309.144C225.846 323.083 218.861 341.74 240.955 364.161" stroke="#43205C" stroke-miterlimit="10" stroke-linecap="round"/>
<path d="M310.385 148.581C295.276 157.819 314.784 181.407 279.838 204.584C244.909 227.761 279.278 248.67 275.505 279.951C271.732 311.232 221.316 324.037 239.439 360.578" stroke="#43205C" stroke-miterlimit="10" stroke-linecap="round"/>
<path d="M347.077 224.556C347.077 231.147 357.275 232.659 359.351 224.375" stroke="black" stroke-width="2" stroke-miterlimit="10" stroke-linecap="round"/>
<path d="M325.542 242.834C328.179 246.04 332.726 246.796 336.499 243.015" stroke="#C98665" stroke-miterlimit="10" stroke-linecap="round"/>
<path d="M323.186 256.198C325.262 262.412 334.143 265.239 338.855 256.001" stroke="#DB6C73" stroke-miterlimit="10" stroke-linecap="round"/>
<path d="M365.398 246.977C365.398 253.009 360.488 257.908 354.441 257.908C348.395 257.908 343.485 253.009 343.485 246.977C343.485 240.944 348.395 236.046 354.441 236.046C360.488 236.046 365.398 240.944 365.398 246.977Z" fill="#FF8C94"/>
<path d="M347.077 206.096C350.668 204.962 356.336 205.537 359.73 209.104" stroke="#6F438F" stroke-miterlimit="10" stroke-linecap="round"/>
</g>
<defs>
<clipPath id="clip0">
<rect width="658" height="700" fill="white" transform="translate(0.0600586)"/>
</clipPath>
</defs>
</svg>
