<svg width="816" height="509" viewBox="0 0 816 509" fill="none" xmlns="http://www.w3.org/2000/svg">
<path d="M43.5047 248.253C51.73 248.253 51.73 257.429 59.9706 257.429C68.196 257.429 68.196 248.253 76.4366 248.253C84.6772 248.253 84.6772 257.429 92.9025 257.429C101.128 257.429 101.143 248.253 109.368 248.253" stroke="#824FF1" stroke-width="2" stroke-miterlimit="10" stroke-linecap="round"/>
<path d="M84.3045 498.295C92.5298 498.295 92.5298 507.471 100.77 507.471C108.996 507.471 108.996 498.295 117.236 498.295C125.477 498.295 125.477 507.471 133.702 507.471C141.928 507.471 141.943 498.295 150.168 498.295" stroke="#824FF1" stroke-width="2" stroke-miterlimit="10" stroke-linecap="round"/>
<path d="M66.9501 1.5293C75.1754 1.5293 75.1754 10.7052 83.4161 10.7052C91.6414 10.7052 91.6414 1.5293 99.882 1.5293C108.123 1.5293 108.123 10.7052 116.348 10.7052C124.573 10.7052 124.589 1.5293 132.814 1.5293" stroke="#824FF1" stroke-width="2" stroke-miterlimit="10" stroke-linecap="round"/>
<path d="M640.318 31.8555C648.543 31.8555 648.543 41.0313 656.783 41.0313C665.009 41.0313 665.009 31.8555 673.249 31.8555C681.49 31.8555 681.49 41.0313 689.715 41.0313C697.956 41.0313 697.956 31.8555 706.181 31.8555" stroke="#824FF1" stroke-width="2" stroke-miterlimit="10" stroke-linecap="round"/>
<path d="M720.733 127.437C728.958 127.437 728.958 136.613 737.199 136.613C745.424 136.613 745.424 127.437 753.665 127.437C761.905 127.437 761.905 136.613 770.131 136.613C778.371 136.613 778.371 127.437 786.596 127.437" stroke="#824FF1" stroke-width="2" stroke-miterlimit="10" stroke-linecap="round"/>
<path d="M739.169 448.592C747.394 448.592 747.394 457.768 755.635 457.768C763.86 457.768 763.86 448.592 772.101 448.592C780.341 448.592 780.341 457.768 788.567 457.768C796.807 457.768 796.807 448.592 805.033 448.592" stroke="#824FF1" stroke-width="2" stroke-miterlimit="10" stroke-linecap="round"/>
<path d="M608.657 47.4086C616.882 47.4086 616.882 56.5844 625.123 56.5844C633.348 56.5844 633.348 47.4086 641.589 47.4086C649.829 47.4086 649.829 56.5844 658.055 56.5844C666.295 56.5844 666.295 47.4086 674.521 47.4086" stroke="#824FF1" stroke-width="2" stroke-miterlimit="10" stroke-linecap="round"/>
<path d="M149.402 87.6753C157.628 87.6753 157.628 96.8512 165.868 96.8512C174.094 96.8512 174.094 87.6753 182.334 87.6753C190.575 87.6753 190.575 96.8512 198.8 96.8512C207.041 96.8512 207.041 87.6753 215.266 87.6753" stroke="#824FF1" stroke-width="2" stroke-miterlimit="10" stroke-linecap="round"/>
<path d="M117.742 103.228C125.967 103.228 125.967 112.404 134.208 112.404C142.433 112.404 142.433 103.228 150.674 103.228C158.914 103.228 158.914 112.404 167.14 112.404C175.365 112.404 175.38 103.228 183.606 103.228" stroke="#824FF1" stroke-width="2" stroke-miterlimit="10" stroke-linecap="round"/>
</svg>
